{"title":"THE_GUESS_WHO_LIVE_AMERICAN_WOMAN.mpg","uid":7391176,"size":291436572,"categoryP":"video","categoryS":"music_videos","magnet":"?xt=urn:btih:84e36ed581d7a5a1651b68bff23f9e2a9a36516e&amp;dn=THE_GUESS_WHO_LIVE_AMERICAN_WOMAN.mpg&amp;tr=udp%3A%2F%2Ftracker.openbittorrent.com%3A80&amp;tr=udp%3A%2F%2Fopen.demonii.com%3A1337&amp;tr=udp%3A%2F%2Ftracker.coppersurfer.tk%3A6969&amp;tr=udp%3A%2F%2Fexodus.desync.com%3A6969","seeders":1,"leechers":0,"uploader":"mesahawni","files":1,"time":1340785865,"description":"A clip of one of the best known songs made by the original band members of The Guess Who in 2004 Live in Winnipeg and loaded with energy literally during a thunderstorm!\n\nFormat                                   : MPEG-PS\nFile size                                : 278 MiB\nDuration                                 : 14mn 31s\nOverall bit rate                         : 2 676 Kbps\n\nVideo\nID                                       : 224 (0xE0)\nFormat                                   : MPEG Video\nFormat version                           : Version 2\nFormat profile                           : Main@Main\nFormat settings, BVOP                    : Yes\nFormat settings, Matrix                  : Custom\nFormat settings, GOP                     : M=3, N=15\nDuration                                 : 14mn 31s\nBit rate                                 : 2 494 Kbps\nMaximum bit rate                         : 2 376 Kbps\nWidth                                    : 480 pixels\nHeight                                   : 480 pixels\nDisplay aspect ratio                     : 4:3\nFrame rate                               : 29.970 fps\nStandard                                 : NTSC\nColor space                              : YUV\nChroma subsampling                       : 4:2:0\nBit depth                                : 8 bits\nScan type                                : Interlaced\nScan order                               : Bottom Field First\nCompression mode                         : Lossy\nBits/(Pixel*Frame)                       : 0.361\nStream size                              : 259 MiB (93%)\nColor primaries                          : BT.470-2 system M\nTransfer characteristics                 : BT.470-2 System M\nMatrix coefficients                      : BT.470-2 System B, BT.470-2 System G\n\nAudio\nID                                       : 192 (0xC0)\nFormat                                   : MPEG Audio\nFormat version                           : Version 1\nFormat profile                           : Layer 2\nDuration                                 : 14mn 30s\nBit rate mode                            : Constant\nBit rate                                 : 128 Kbps\nChannel(s)                               : 2 channels\nSampling rate                            : 44.1 KHz\nCompression mode                         : Lossy\nStream size                              : 13.3 MiB (5%)\n\n","torrent":{"xt":"urn:btih:84e36ed581d7a5a1651b68bff23f9e2a9a36516e","amp;dn":"THE_GUESS_WHO_LIVE_AMERICAN_WOMAN.mpg","amp;tr":["udp%3A%2F%2Ftracker.openbittorrent.com%3A80","udp%3A%2F%2Fopen.demonii.com%3A1337","udp%3A%2F%2Ftracker.coppersurfer.tk%3A6969","udp%3A%2F%2Fexodus.desync.com%3A6969"],"infoHash":"84e36ed581d7a5a1651b68bff23f9e2a9a36516e","infoHashBuffer":{"type":"Buffer","data":[132,227,110,213,129,215,165,161,101,27,104,191,242,63,158,42,154,54,81,110]},"announce":[],"urlList":[]}}